<svg width="1080" height="1920" viewBox="0 0 1080 1920" xmlns="http://www.w3.org/2000/svg" font-family="Arial, Helvetica, sans-serif">
  <rect width="1080" height="1920" fill="#F5F5F5"/>
  <rect width="1080" height="240" fill="#2E7D32"/>
  <text x="60" y="118" font-size="60" font-weight="700" fill="#FFFFFF">Конвертация в один тап</text>
  <text x="62" y="184" font-size="34" fill="#C8E6C9">Конвертер валют</text>

  <text x="60" y="360" font-size="40" font-weight="700" fill="#212121">Исходная валюта</text>
  <g font-size="36">
    <rect x="60" y="392" width="190" height="78" rx="39" fill="#2E7D32"/>
    <text x="155" y="442" text-anchor="middle" fill="#FFFFFF">🇷🇺 RUB</text>
    <rect x="270" y="392" width="190" height="78" rx="39" fill="#FFFFFF" stroke="#BDBDBD" stroke-width="2"/>
    <text x="365" y="442" text-anchor="middle" fill="#424242">🇺🇸 USD</text>
    <rect x="480" y="392" width="190" height="78" rx="39" fill="#FFFFFF" stroke="#BDBDBD" stroke-width="2"/>
    <text x="575" y="442" text-anchor="middle" fill="#424242">🇪🇺 EUR</text>
  </g>

  <rect x="60" y="520" width="960" height="120" rx="16" fill="#FFFFFF" stroke="#BDBDBD" stroke-width="2"/>
  <text x="84" y="558" font-size="26" fill="#9E9E9E">Сумма</text>
  <text x="84" y="610" font-size="48" font-weight="700" fill="#212121">1000</text>

  <rect x="60" y="676" width="960" height="110" rx="16" fill="#2E7D32"/>
  <text x="540" y="745" text-anchor="middle" font-size="42" font-weight="700" fill="#FFFFFF">Конвертировать</text>

  <rect x="60" y="840" width="960" height="184" rx="20" fill="#FFFFFF" stroke="#E0E0E0" stroke-width="2"/>
  <text x="92" y="906" font-size="34" fill="#616161">🇺🇸 USD — Доллар США</text>
  <text x="92" y="968" font-size="46" font-weight="700" fill="#1B5E20">1000 RUB = 11.05 USD</text>
  <text x="92" y="1010" font-size="30" fill="#9E9E9E">1 USD = 90.50 RUB</text>

  <rect x="60" y="1048" width="960" height="184" rx="20" fill="#FFFFFF" stroke="#E0E0E0" stroke-width="2"/>
  <text x="92" y="1114" font-size="34" fill="#616161">🇪🇺 EUR — Евро</text>
  <text x="92" y="1176" font-size="46" font-weight="700" fill="#1B5E20">1000 RUB = 10.20 EUR</text>
  <text x="92" y="1218" font-size="30" fill="#9E9E9E">1 EUR = 98.04 RUB</text>

  <text x="60" y="1300" font-size="29" fill="#9E9E9E">📊 Источник: 🇷🇺 ЦБ РФ   ·   🕒 Обновлено: 16.06 17:00 МСК</text>

  <rect x="0" y="1772" width="1080" height="148" fill="#FFFFFF"/>
  <line x1="0" y1="1772" x2="1080" y2="1772" stroke="#E0E0E0" stroke-width="2"/>
  <text x="135" y="1852" text-anchor="middle" font-size="46">🔄</text>
  <text x="405" y="1852" text-anchor="middle" font-size="46">⭐</text>
  <text x="675" y="1852" text-anchor="middle" font-size="46">⚙️</text>
  <text x="945" y="1852" text-anchor="middle" font-size="46">ℹ️</text>
  <text x="135" y="1902" text-anchor="middle" font-size="26" fill="#2E7D32" font-weight="700">Конвертация</text>
</svg>
